# xmcd CD database file
#
# Track frame offsets:
#	150
#	13408
#	27168
#	43140
#	57417
#	72631
#	90656
#	106218
#	119945
#	135045
#	152057
#	166940
#	185896
#	199346
#	214779
#	234066
#	251556
#	263126
#	278712
#
# Disc length: 4027 seconds
#
# Revision: 0
# Processed by: cddbd v1.5.2PL0 Copyright (c) Steve Scherf et al.
# Submitted via: CDex 1.70beta2
#
DISCID=180fb913
DTITLE=Dolly Parton - The Essential Dolly Parton Disc 2
DYEAR=1900
DGENRE=Country
TTITLE0=Here You Come Again
TTITLE1=Two Doors Down
TTITLE2=Heartbreaker
TTITLE3=I Really Got The Feeling
TTITLE4=Youre The Only One
TTITLE5=Starting Over Again
TTITLE6=Old Flames Cant Hold A Candle
TTITLE7=9 To 5
TTITLE8=But You Know I Love You
TTITLE9=Single Women
TTITLE10=Heartbreak Express
TTITLE11=Islands In The Stream
TTITLE12=Save The Last Dance For Me
TTITLE13=Tennessee Homesick Blues
TTITLE14=God Wont Get You
TTITLE15=To Know Him Is To Love Him
TTITLE16=Whyd You Come In Here Lookin L
TTITLE17=Rockin Years
TTITLE18=Shine
EXTD=
EXTT0=
EXTT1=
EXTT2=
EXTT3=
EXTT4=
EXTT5=
EXTT6=
EXTT7=
EXTT8=
EXTT9=
EXTT10=
EXTT11=
EXTT12=
EXTT13=
EXTT14=
EXTT15=
EXTT16=
EXTT17=
EXTT18=
PLAYORDER=
